<svg version="1.2" xmlns="http://www.w3.org/2000/svg" viewBox="0 0 34 33" width="34" height="33"><defs><clipPath clipPathUnits="userSpaceOnUse" id="cp1"><path d="m33.48 16.62c0 9.12-7.39 16.52-16.51 16.52-9.12 0-16.51-7.4-16.51-16.52 0-9.11 7.39-16.51 16.51-16.51 9.12 0 16.51 7.4 16.51 16.51z"/></clipPath></defs><style>.a{fill:#162b67}.b{fill:#fff}.c{fill:#ff3935}</style><g clip-path="url(#cp1)"><path class="a" d="m-10.5-1.6h54.7v36.5h-54.7z"/><path class="b" d="m-10.5 10.5h6.6l-6.6-3.3v-8.8h0.1l21.3 10.7v-10.7h11.9v10.7l21.2-10.7h0.2v8.8l-6.7 3.3h6.7v12.2h-6.7l6.7 3.4v8.8h-0.2l-21.2-10.8v10.8h-11.9v-10.8l-21.3 10.8h-0.1v-8.8l6.6-3.4h-6.6"/><path class="c" d="m44.2 2.7l-15.3 7.9h-5.7l21-10.7z"/><path class="c" d="m44.2 30.5l-15.3-7.8h5.7l9.6 4.9z"/><path class="c" d="m-0.8 10.6l-9.7-5v-2.9l15.5 7.9z"/><path class="c" d="m10.7 22.7l-21.2 10.7v-2.9l15.4-7.8z"/><path class="c" d="m-10.5 13.1h23.9v-14.7h7v14.7h23.8v7.1h-23.8v14.7h-7v-14.7h-23.9z"/></g></svg>