<svg version="1.2" xmlns="http://www.w3.org/2000/svg" viewBox="0 0 74 75" width="74" height="75"><defs><clipPath clipPathUnits="userSpaceOnUse" id="cp1"><path d="m0-1h75v77h-75z"/></clipPath></defs><style></style><g clip-path="url(#cp1)"><path fill-rule="evenodd" d="m36.9 74c-20.4 0-36.9-16.5-36.9-36.9 0-20.3 16.5-36.8 36.9-36.8 20.3 0 36.8 16.5 36.8 36.8 0 20.4-16.5 36.9-36.8 36.9zm0-71.2c-19 0-34.4 15.4-34.4 34.3 0 19 15.4 34.4 34.4 34.4 18.9 0 34.3-15.4 34.3-34.4 0-18.9-15.4-34.3-34.3-34.3zm-4.7 47.3c-0.3 0-0.6-0.1-0.9-0.4-0.4-0.5-0.4-1.3 0-1.8l11.4-11.3-11.4-11.3c-0.4-0.5-0.4-1.3 0-1.8 0.5-0.5 1.3-0.5 1.8 0l12.2 12.2c0.5 0.5 0.5 1.3 0 1.8l-12.2 12.2c-0.2 0.3-0.5 0.4-0.9 0.4z"/></g></svg>